<svg xmlns="http://www.w3.org/2000/svg" viewBox="0 0 64 64" role="img" aria-label="Skill Cafť">
  <rect width="64" height="64" rx="14" fill="#006241"/>
  <path fill="#F2F0EB" d="M18 22h22a2 2 0 0 1 2 2v14a10 10 0 0 1-10 10H26a10 10 0 0 1-10-10V24a2 2 0 0 1 2-2z"/>
  <path fill="none" stroke="#CBA258" stroke-width="2.5" stroke-linecap="round" d="M42 26h4a5 5 0 0 1 0 10h-4"/>
  <path fill="none" stroke="#F2F0EB" stroke-width="2" stroke-linecap="round" d="M26 16c1.5 2 1.5 4 0 6M32 15c1.5 2 1.5 5 0 7M38 16c1.5 2 1.5 4 0 6"/>
  <circle cx="32" cy="52" r="2.5" fill="#CBA258"/>
</svg>
